G04 Layer_Physical_Order=1*
G04 Layer_Color=255*
%FSLAX25Y25*%
%MOIN*%
G70*
G01*
G75*
%ADD10O,0.06890X0.01378*%
%ADD11O,0.01378X0.06890*%
%ADD12R,0.06000X0.08000*%
%ADD13R,0.06000X0.04000*%
%ADD14R,0.04000X0.06000*%
%ADD15O,0.05906X0.02953*%
%ADD16O,0.02559X0.05906*%
%ADD17O,0.02953X0.05906*%
%ADD18R,0.04724X0.04331*%
%ADD19R,0.04331X0.06693*%
%ADD20R,0.03937X0.09449*%
%ADD21R,0.12598X0.09449*%
%ADD22C,0.01000*%
%ADD23C,0.01575*%
%ADD24R,0.05906X0.05906*%
%ADD25C,0.05906*%
%ADD26R,0.05906X0.05906*%
%ADD27P,0.05966X8X22.5*%
%ADD28C,0.05512*%
%ADD29C,0.05000*%
D10*
X166732Y165354D02*
D03*
Y162205D02*
D03*
Y159055D02*
D03*
Y155905D02*
D03*
Y152756D02*
D03*
Y149606D02*
D03*
Y146457D02*
D03*
Y143307D02*
D03*
Y140157D02*
D03*
Y137008D02*
D03*
Y133858D02*
D03*
Y130709D02*
D03*
Y127559D02*
D03*
Y124409D02*
D03*
Y121260D02*
D03*
Y118110D02*
D03*
X226969D02*
D03*
Y121260D02*
D03*
Y124409D02*
D03*
Y127559D02*
D03*
Y130709D02*
D03*
Y133858D02*
D03*
Y137008D02*
D03*
Y140157D02*
D03*
Y143307D02*
D03*
Y146457D02*
D03*
Y149606D02*
D03*
Y152756D02*
D03*
Y155905D02*
D03*
Y159055D02*
D03*
Y162205D02*
D03*
Y165354D02*
D03*
D11*
X173228Y111614D02*
D03*
X176378D02*
D03*
X179528D02*
D03*
X182677D02*
D03*
X185827D02*
D03*
X188976D02*
D03*
X192126D02*
D03*
X195276D02*
D03*
X198425D02*
D03*
X201575D02*
D03*
X204724D02*
D03*
X207874D02*
D03*
X211024D02*
D03*
X214173D02*
D03*
X217323D02*
D03*
X220472D02*
D03*
Y171850D02*
D03*
X217323D02*
D03*
X214173D02*
D03*
X211024D02*
D03*
X207874D02*
D03*
X204724D02*
D03*
X201575D02*
D03*
X198425D02*
D03*
X195276D02*
D03*
X192126D02*
D03*
X188976D02*
D03*
X185827D02*
D03*
X182677D02*
D03*
X179528D02*
D03*
X176378D02*
D03*
X173228D02*
D03*
D12*
X195972Y214866D02*
D03*
X184972D02*
D03*
X181102Y198819D02*
D03*
X170102D02*
D03*
X25996Y299213D02*
D03*
X36996D02*
D03*
D13*
X244094Y165480D02*
D03*
Y157480D02*
D03*
X246063Y119614D02*
D03*
Y111614D02*
D03*
X348425Y362142D02*
D03*
Y370142D02*
D03*
X147638Y117984D02*
D03*
Y125984D02*
D03*
X55118Y326709D02*
D03*
Y334709D02*
D03*
D14*
X118173Y112205D02*
D03*
X110173D02*
D03*
X204142Y92583D02*
D03*
X196142D02*
D03*
X210504Y190945D02*
D03*
X218504D02*
D03*
D15*
X169291Y378740D02*
D03*
Y374016D02*
D03*
Y369291D02*
D03*
Y364567D02*
D03*
Y359842D02*
D03*
Y355118D02*
D03*
Y350394D02*
D03*
Y345669D02*
D03*
Y340945D02*
D03*
Y336221D02*
D03*
Y331496D02*
D03*
Y326772D02*
D03*
X221654D02*
D03*
Y331496D02*
D03*
Y336221D02*
D03*
Y340945D02*
D03*
Y345669D02*
D03*
Y350394D02*
D03*
Y355118D02*
D03*
Y359842D02*
D03*
Y364567D02*
D03*
Y369291D02*
D03*
Y374016D02*
D03*
Y378740D02*
D03*
D16*
X207874Y315748D02*
D03*
X183465D02*
D03*
X211811D02*
D03*
X179528D02*
D03*
D17*
X202756D02*
D03*
X193307D02*
D03*
X198031D02*
D03*
X188583D02*
D03*
D18*
X348425Y344291D02*
D03*
Y352559D02*
D03*
D19*
X24213Y106299D02*
D03*
X34843D02*
D03*
X18898Y94488D02*
D03*
X29528D02*
D03*
D20*
X42323Y80315D02*
D03*
X36417D02*
D03*
X30512D02*
D03*
X24606D02*
D03*
D21*
X33465Y57480D02*
D03*
D22*
X314803Y340551D02*
X318543Y344291D01*
X195972Y202756D02*
Y214866D01*
X156923Y130709D02*
X166732D01*
X179528Y80000D02*
Y111614D01*
X185827Y108771D02*
Y111614D01*
X185024Y107968D02*
X185827Y108771D01*
X188976Y108771D02*
Y111614D01*
X187008Y106803D02*
X188976Y108771D01*
X248756Y100394D02*
X282992D01*
X231039Y118110D02*
X248756Y100394D01*
X226969Y118110D02*
X231039D01*
X226969Y159055D02*
X231596D01*
X226969Y162205D02*
X231940D01*
X222788Y177478D02*
X226146D01*
X220472Y175163D02*
X222788Y177478D01*
X220472Y171850D02*
Y175163D01*
X262283Y213615D02*
Y259842D01*
X226146Y177478D02*
X262283Y213615D01*
X214173Y171850D02*
Y176772D01*
X219811Y182409D01*
X204724Y171850D02*
Y200394D01*
X201575Y171850D02*
Y200189D01*
X198425Y171850D02*
Y178224D01*
X195276Y171850D02*
Y180709D01*
X188803Y172024D02*
X188976Y171850D01*
X188803Y172024D02*
Y191118D01*
X181102Y198819D02*
X188803Y191118D01*
X179528Y171850D02*
Y178110D01*
X171260Y186378D02*
X179528Y178110D01*
X172082Y188362D02*
X182677Y177767D01*
Y171850D02*
Y177767D01*
X173228Y171850D02*
Y177165D01*
X188992Y85439D02*
Y104347D01*
X187008Y84617D02*
Y106803D01*
X85590Y135669D02*
X90551D01*
X45276Y175984D02*
X85590Y135669D01*
X45276Y175984D02*
Y189744D01*
X122047Y72835D02*
X166693D01*
X118110Y76772D02*
X122047Y72835D01*
X118110Y76772D02*
Y82520D01*
X156070Y114173D02*
X160007Y118110D01*
X137083Y114173D02*
X156070D01*
X129260Y106350D02*
X137083Y114173D01*
X129260Y91610D02*
Y106350D01*
X124606Y86957D02*
X129260Y91610D01*
X113571Y86957D02*
X124606D01*
X108110Y82520D02*
X109134D01*
X113571Y86957D01*
X160007Y118110D02*
X166732D01*
X220787Y25433D02*
Y35433D01*
X210787Y25433D02*
Y35433D01*
X200787Y25433D02*
Y35433D01*
X190787Y25433D02*
Y35433D01*
X45276Y200945D02*
Y218504D01*
X40866Y222913D02*
X45276Y218504D01*
X35433Y222913D02*
X40866D01*
X42107Y192913D02*
X45276Y189744D01*
X35433Y192913D02*
X42107D01*
X45276Y200945D02*
X90551Y155669D01*
X45276Y299213D02*
X49213Y295276D01*
X36996Y299213D02*
X45276D01*
X179528Y310394D02*
Y315748D01*
X160472Y291339D02*
X179528Y310394D01*
X198031Y305591D02*
X200472Y303150D01*
Y291339D02*
Y303150D01*
X188583Y305039D02*
Y315748D01*
X180472Y296929D02*
X188583Y305039D01*
X180472Y291339D02*
Y296929D01*
X155206Y146457D02*
X166732D01*
X134293Y167370D02*
X155206Y146457D01*
X106160Y167370D02*
X134293D01*
X100409Y173121D02*
X106160Y167370D01*
X100409Y173121D02*
Y182086D01*
X96441Y186054D02*
X100409Y182086D01*
X96441Y186054D02*
Y190961D01*
X91732Y195669D02*
X96441Y190961D01*
X155550Y143307D02*
X166732D01*
X133471Y165386D02*
X155550Y143307D01*
X105339Y165386D02*
X133471D01*
X98425Y172299D02*
X105339Y165386D01*
X98425Y172299D02*
Y177795D01*
X90551Y185669D02*
X98425Y177795D01*
X155893Y140157D02*
X166732D01*
X132649Y163402D02*
X155893Y140157D01*
X104050Y163402D02*
X132649D01*
X99956Y167496D02*
X104050Y163402D01*
X96284Y167496D02*
X99956D01*
X156237Y137008D02*
X166732D01*
X131827Y161417D02*
X156237Y137008D01*
X103228Y161417D02*
X131827D01*
X99134Y165512D02*
X103228Y161417D01*
X90709Y165512D02*
X99134D01*
X156580Y133858D02*
X166732D01*
X142785Y147653D02*
X156580Y133858D01*
X98567Y147653D02*
X142785D01*
X141963Y145669D02*
X156923Y130709D01*
X90551Y145669D02*
X141963D01*
X141141Y143685D02*
X157267Y127559D01*
X98567Y143685D02*
X141141D01*
X98425Y186876D02*
X102394Y182908D01*
X98425Y186876D02*
Y198646D01*
X91402Y205669D02*
X98425Y198646D01*
X102394Y173943D02*
Y182908D01*
X157267Y127559D02*
X166732D01*
X90551Y165669D02*
X90709Y165512D01*
X90551Y173228D02*
X96284Y167496D01*
X283465Y155669D02*
X289370D01*
X280441Y152646D02*
X283465Y155669D01*
X280441Y149480D02*
Y152646D01*
Y165669D02*
X289370D01*
X277559Y162787D02*
X280441Y165669D01*
X277559Y149673D02*
Y162787D01*
X269622Y185921D02*
X289370Y205669D01*
X271606Y183024D02*
X284252Y195669D01*
X273591Y180236D02*
X279024Y185669D01*
X275575Y171244D02*
X280000Y175669D01*
X275575Y150495D02*
Y171244D01*
X273591Y151317D02*
Y180236D01*
X271606Y152139D02*
Y183024D01*
X269622Y152961D02*
Y185921D01*
X259968Y143307D02*
X269622Y152961D01*
X280000Y175669D02*
X289370D01*
X279024Y185669D02*
X289370D01*
X284252Y195669D02*
X289370D01*
X311811Y260394D02*
X314961D01*
X245433Y326772D02*
X311811Y260394D01*
X221654Y326772D02*
X245433D01*
X314961Y252457D02*
Y260394D01*
X301890Y239386D02*
X314961Y252457D01*
X301890Y190315D02*
Y239386D01*
X297244Y185669D02*
X301890Y190315D01*
X289370Y185669D02*
X297244D01*
X195972Y214866D02*
Y223319D01*
X194646Y224646D02*
Y232283D01*
Y224646D02*
X195972Y223319D01*
X176976Y208661D02*
X181102Y204535D01*
Y198819D02*
Y204535D01*
X176378Y171850D02*
Y177953D01*
X169937Y184394D02*
X176378Y177953D01*
X143710Y184394D02*
X169937D01*
X167984Y182409D02*
X173228Y177165D01*
X142888Y182409D02*
X167984D01*
X161874Y188362D02*
X172082D01*
X151575Y198661D02*
X161874Y188362D01*
X190787Y197571D02*
X195972Y202756D01*
X190787Y177263D02*
Y197571D01*
Y177263D02*
X192126Y175925D01*
Y171850D02*
Y175925D01*
X198425Y183194D02*
Y199953D01*
Y183194D02*
X199260Y182359D01*
Y179058D02*
Y182359D01*
X198425Y178224D02*
X199260Y179058D01*
X198425Y199953D02*
X229939Y231467D01*
X234268Y229937D02*
Y251827D01*
X204724Y200394D02*
X234268Y229937D01*
X228873Y66929D02*
X232598D01*
X188992Y104347D02*
X192126Y107480D01*
Y111614D01*
X197453Y71366D02*
X208161D01*
X199084Y66929D02*
X202598D01*
X179528Y80000D02*
X192598Y66929D01*
X208161Y71366D02*
X212598Y66929D01*
X176378Y73150D02*
X182598Y66929D01*
X176378Y73150D02*
Y111614D01*
X283181Y90583D02*
X299213Y106614D01*
X235058Y90583D02*
X283181D01*
X294173Y56614D02*
X299213D01*
X290299Y60488D02*
X294173Y56614D01*
X290299Y60488D02*
Y78942D01*
X288315Y52236D02*
X293937Y46614D01*
X299213D01*
X288315Y52236D02*
Y77036D01*
X286674Y78677D02*
X288315Y77036D01*
X230127Y78677D02*
X286674D01*
X292284Y67953D02*
Y79764D01*
Y67953D02*
X293622Y66614D01*
X299213D01*
X288580Y80661D02*
X290299Y78942D01*
X230949Y80661D02*
X288580D01*
X201575Y107229D02*
X230127Y78677D01*
X204724Y106886D02*
X230949Y80661D01*
X289402Y82646D02*
X292284Y79764D01*
X231770Y82646D02*
X289402D01*
X207874Y106542D02*
X231770Y82646D01*
X220472Y105168D02*
X235058Y90583D01*
X291197Y88598D02*
X299213Y96614D01*
X234236Y88598D02*
X291197D01*
X217323Y105512D02*
X234236Y88598D01*
X211024Y106199D02*
X232592Y84630D01*
X291197D02*
X299213Y76614D01*
X232592Y84630D02*
X291197D01*
X233414Y86614D02*
X299213D01*
X214173Y105855D02*
X233414Y86614D01*
X201575Y107229D02*
Y111614D01*
X204724Y106886D02*
Y111614D01*
X214173Y105855D02*
Y111614D01*
X217323Y105512D02*
Y111614D01*
X220472Y105168D02*
Y111614D01*
X211024Y106199D02*
Y111614D01*
X207874Y106542D02*
Y111614D01*
X229939Y231467D02*
Y252187D01*
X232283Y230898D02*
Y259842D01*
X201575Y200189D02*
X232283Y230898D01*
X226969Y143307D02*
X259968D01*
X272284Y254031D02*
Y259842D01*
X264268Y246016D02*
X272284Y254031D01*
X264268Y212793D02*
Y246016D01*
X282283Y253937D02*
Y259842D01*
X280331Y251984D02*
X282283Y253937D01*
X274769Y251984D02*
X280331D01*
X266252Y243468D02*
X274769Y251984D01*
X266252Y211971D02*
Y243468D01*
X292284Y253937D02*
Y259842D01*
X288347Y250000D02*
X292284Y253937D01*
X275590Y250000D02*
X288347D01*
X268236Y242646D02*
X275590Y250000D01*
X268236Y211150D02*
Y242646D01*
X252284Y259842D02*
X260299Y251827D01*
Y214866D02*
Y251827D01*
X227550Y182117D02*
X260299Y214866D01*
X225045Y179612D02*
X227550Y182117D01*
X220163Y179612D02*
X225045D01*
X233071Y181597D02*
X264268Y212793D01*
X233071Y166142D02*
Y181597D01*
X235055Y180775D02*
X266252Y211971D01*
X235055Y165320D02*
Y180775D01*
X237039Y179953D02*
X268236Y211150D01*
X237039Y164498D02*
Y179953D01*
X231596Y159055D02*
X237039Y164498D01*
X231940Y162205D02*
X235055Y165320D01*
X232283Y165354D02*
X233071Y166142D01*
X226969Y165354D02*
X232283D01*
X222284Y259842D02*
X229939Y252187D01*
X234268Y251827D02*
X242284Y259842D01*
X90551Y135669D02*
X98567Y143685D01*
X90551Y155669D02*
X98567Y147653D01*
X154863Y149606D02*
X166732D01*
X135115Y169354D02*
X154863Y149606D01*
X90551Y195669D02*
X91732D01*
X90551Y205669D02*
X91402D01*
X106982Y169354D02*
X135115D01*
X102394Y173943D02*
X106982Y169354D01*
X90551Y173228D02*
Y175669D01*
X158167Y155905D02*
X166732D01*
X129260Y184813D02*
X158167Y155905D01*
X158511Y152756D02*
X166732D01*
X127276Y183991D02*
X158511Y152756D01*
X144532Y186378D02*
X171260D01*
X141165Y189744D02*
X144532Y186378D01*
X141165Y189744D02*
Y241559D01*
X148700Y249094D01*
X139181Y242381D02*
X148422Y251622D01*
X139181Y188922D02*
Y242381D01*
X148422Y251622D02*
X155512D01*
X139181Y188922D02*
X143710Y184394D01*
X137197Y188101D02*
X142888Y182409D01*
X137197Y188101D02*
Y243803D01*
X145016Y251622D01*
X135213Y245449D02*
X143228Y253465D01*
X135213Y187279D02*
Y245449D01*
Y187279D02*
X157137Y165354D01*
X166732D01*
X157480Y162205D02*
X166732D01*
X133228Y186457D02*
X157480Y162205D01*
X133228Y186457D02*
Y259842D01*
X127276Y183991D02*
Y241966D01*
X129260Y184813D02*
Y242787D01*
X116879Y252362D02*
X127276Y241966D01*
X113228Y258819D02*
X129260Y242787D01*
X113228Y258819D02*
Y259842D01*
X157824Y159055D02*
X166732D01*
X131244Y185635D02*
X157824Y159055D01*
X131244Y185635D02*
Y244189D01*
X123228Y252205D02*
X131244Y244189D01*
X110709Y252362D02*
X116879D01*
X173213Y111598D02*
X173228Y111614D01*
X143228Y253465D02*
Y259842D01*
X145016Y251622D02*
Y251630D01*
X148700Y249094D02*
X162480D01*
X173228Y259842D01*
X163228Y259338D02*
Y259842D01*
X155512Y251622D02*
X163228Y259338D01*
X123228Y252205D02*
Y259842D01*
X145016Y251630D02*
X153228Y259842D01*
X103228D02*
X110709Y252362D01*
X14764Y321850D02*
X40354D01*
X44291D01*
X49150Y326709D01*
X55118D01*
X40354Y310039D02*
Y321850D01*
X36996Y306681D02*
X40354Y310039D01*
X36996Y299213D02*
Y306681D01*
X108110Y92520D02*
Y104173D01*
X110173Y106236D01*
Y112205D01*
X108110Y71024D02*
Y82520D01*
Y71024D02*
X112205Y66929D01*
X162598D01*
X166693Y72835D02*
X172598Y66929D01*
X147638Y345669D02*
X169291D01*
X112362Y310394D02*
X147638Y345669D01*
X78740Y310394D02*
X112362D01*
X147638Y350394D02*
X169291D01*
X117638Y320394D02*
X147638Y350394D01*
X78740Y320394D02*
X117638D01*
X147638Y355118D02*
X169291D01*
X122913Y330394D02*
X147638Y355118D01*
X78740Y330394D02*
X122913D01*
X147638Y359842D02*
X169291D01*
X128409Y340614D02*
X147638Y359842D01*
X78961Y340614D02*
X128409D01*
X78740Y340394D02*
X78961Y340614D01*
X148031Y364567D02*
X169291D01*
X133858Y350394D02*
X148031Y364567D01*
X78740Y350394D02*
X133858D01*
X147638Y369291D02*
X169291D01*
X138583Y360236D02*
X147638Y369291D01*
X78898Y360236D02*
X138583D01*
X78740Y360394D02*
X78898Y360236D01*
X147638Y374016D02*
X169291D01*
X143701Y370079D02*
X147638Y374016D01*
X79055Y370079D02*
X143701D01*
X78740Y370394D02*
X79055Y370079D01*
X221654Y331496D02*
X246063D01*
X307165Y270394D01*
X314961D01*
X221654Y336221D02*
X246063D01*
X301890Y280394D01*
X314961D01*
X221654Y340945D02*
X246063D01*
X296614Y290394D01*
X314961D01*
X221654Y345669D02*
X246063D01*
X291339Y300394D01*
X314961D01*
X221654Y350394D02*
X246063D01*
X285433Y311024D01*
X314331D01*
X314961Y310394D01*
X221654Y355118D02*
X246063D01*
X280787Y320394D01*
X314961D01*
X221654Y359842D02*
X246063D01*
X275512Y330394D01*
X314961D01*
X221654Y364567D02*
X246063D01*
X270079Y340551D01*
X314803D01*
X221654Y369291D02*
X246063D01*
X264961Y350394D01*
X314961D01*
X221654Y374016D02*
X246063D01*
X259842Y360236D01*
X314803D01*
X314961Y360394D01*
X221654Y378740D02*
X246063D01*
X254409Y370394D01*
X314961D01*
X193307Y305512D02*
Y315748D01*
X190472Y302677D02*
X193307Y305512D01*
X190472Y291339D02*
Y302677D01*
X198031Y305591D02*
Y315748D01*
X202756Y305118D02*
Y315748D01*
Y305118D02*
X210472Y297402D01*
Y291339D02*
Y297402D01*
X211811Y310000D02*
Y315748D01*
Y310000D02*
X230472Y291339D01*
X190787Y35433D02*
Y45118D01*
X202598Y56929D01*
Y66929D01*
X210787Y35433D02*
Y49370D01*
X212598Y51181D01*
Y66929D01*
X222598Y51024D02*
Y66929D01*
X220787Y49213D02*
X222598Y51024D01*
X220787Y35433D02*
Y49213D01*
X318543Y344291D02*
X348425D01*
Y352559D02*
Y362142D01*
X147638Y336221D02*
X169291D01*
X344488Y212913D02*
X366142D01*
X344488Y202913D02*
X366142D01*
X299213Y46614D02*
X312362D01*
X344488Y192913D02*
X366142D01*
X147638Y340945D02*
X169291D01*
X78740Y300394D02*
X107087D01*
X147638Y340945D01*
X78740Y290394D02*
X101811D01*
X147638Y336221D01*
X312362Y46614D02*
X332677Y66929D01*
Y181102D01*
X344488Y192913D01*
X330693Y189118D02*
X344488Y202913D01*
X328709Y197134D02*
X344488Y212913D01*
X299213Y116614D02*
X321339D01*
X328709Y123984D01*
Y197134D01*
X299213Y106614D02*
X317244D01*
X330693Y120063D01*
Y189118D01*
X182677Y83336D02*
Y111614D01*
X185024Y83795D02*
Y107968D01*
X182677Y83336D02*
X199084Y66929D01*
X185024Y83795D02*
X197453Y71366D01*
X172598Y66929D02*
X173228Y67559D01*
Y79871D01*
X173213Y79887D02*
X173228Y79871D01*
X173213Y79887D02*
Y111598D01*
X187008Y84617D02*
X198275Y73350D01*
X216177D01*
X222598Y66929D01*
X188992Y85439D02*
X199097Y75335D01*
X220468D01*
X228873Y66929D01*
X282992Y100394D02*
X299213Y116614D01*
X226969Y140157D02*
X259625D01*
X271606Y152139D01*
X226969Y137008D02*
X259282D01*
X273591Y151317D01*
X226969Y133858D02*
X258938D01*
X275575Y150495D01*
X226969Y130709D02*
X258595D01*
X277559Y149673D01*
X226969Y127559D02*
X258520D01*
X280441Y149480D01*
X226969Y146457D02*
X258245D01*
X262283Y150495D01*
Y159291D01*
X226969Y149606D02*
X255017D01*
X257874Y152463D01*
Y155696D01*
X257846Y155724D02*
X257874Y155696D01*
X257846Y155724D02*
Y164854D01*
X262283Y169291D01*
X236221Y204921D02*
X236968Y205669D01*
X217323Y176772D02*
X220163Y179612D01*
X217323Y171850D02*
Y176772D01*
X236221Y194220D02*
Y204921D01*
X219811Y182409D02*
X224410D01*
X236221Y194220D01*
D23*
X29640Y94601D02*
X36991D01*
X29528Y94488D02*
X29640Y94601D01*
X42323Y80315D02*
Y97234D01*
X39163Y100394D02*
X42323Y97234D01*
X27559Y100394D02*
X39163D01*
X195276Y93449D02*
Y111614D01*
Y93449D02*
X196142Y92583D01*
X173228Y214866D02*
X184972D01*
X207874Y171850D02*
Y180283D01*
X39370Y9843D02*
X78740D01*
X104331Y35433D01*
X160787D01*
X25591Y23622D02*
X39370Y9843D01*
X132649Y117984D02*
X147638D01*
X118173Y92583D02*
Y112205D01*
X11811Y63386D02*
X17717Y57480D01*
X33465D01*
X11811Y63386D02*
Y87402D01*
X24213Y103740D02*
X27559Y100394D01*
X30512Y80315D02*
Y86957D01*
X29528Y87941D02*
X30512Y86957D01*
X29528Y87941D02*
Y94488D01*
X160787Y25433D02*
Y35433D01*
X230787Y25433D02*
Y35433D01*
X170787Y25433D02*
Y35433D01*
X157824Y121260D02*
X166732D01*
X154548Y117984D02*
X157824Y121260D01*
X147638Y117984D02*
X154548D01*
X25996Y283217D02*
X35591Y273622D01*
X17717Y190630D02*
X25433Y182913D01*
X17717Y215197D02*
X25433Y222913D01*
Y255748D01*
X25996Y283217D02*
Y299213D01*
X37114Y267429D02*
X93883D01*
X25433Y255748D02*
X37114Y267429D01*
X93883D02*
X153225Y326772D01*
X17717Y190630D02*
Y215197D01*
X183465Y304331D02*
Y315748D01*
X170472Y291339D02*
X183465Y304331D01*
X153288Y125984D02*
X154863Y124409D01*
X147638Y125984D02*
X153288D01*
X154863Y124409D02*
X166732D01*
X151575Y208661D02*
X160260D01*
X170102Y198819D01*
Y211740D02*
X173228Y214866D01*
X170102Y198819D02*
Y211740D01*
X177150Y190961D02*
X184972Y183138D01*
Y176988D02*
Y183138D01*
Y176988D02*
X185827Y176134D01*
X170102Y192940D02*
Y198819D01*
Y192940D02*
X172082Y190961D01*
X177150D01*
X185827Y171850D02*
Y176134D01*
X207874Y180283D02*
X210504Y182913D01*
X211024Y177559D02*
X218504Y185039D01*
X211024Y171850D02*
Y177559D01*
X242063Y165480D02*
X244094D01*
X239370Y162787D02*
X242063Y165480D01*
X239370Y160309D02*
Y162787D01*
X239323Y160261D02*
X239370Y160309D01*
X239323Y159638D02*
Y160261D01*
X235591Y155905D02*
X239323Y159638D01*
X226969Y155905D02*
X235591D01*
X239370Y152756D02*
X244094Y157480D01*
X226969Y152756D02*
X239370D01*
X218504Y185039D02*
Y190945D01*
Y197205D01*
X226969Y205669D01*
X210504Y182913D02*
Y190945D01*
X25591Y23622D02*
Y39370D01*
X33465Y47244D01*
Y57480D01*
X118110Y92520D02*
X118173Y92583D01*
X14764Y339567D02*
X40354D01*
X207874Y303937D02*
Y315748D01*
Y303937D02*
X220472Y291339D01*
X35591Y23622D02*
X66929D01*
X42323Y80315D02*
X49606D01*
X55118Y74803D01*
Y47244D02*
Y74803D01*
Y47244D02*
X66929Y35433D01*
X336614Y379921D02*
X344488D01*
X348425Y375984D01*
Y370142D02*
Y375984D01*
X151575Y331496D02*
X169291D01*
X157480Y381890D02*
X166142D01*
X169291Y378740D01*
X153225Y326772D02*
X157480D01*
X169291D01*
X40354Y339567D02*
X50260D01*
X55118Y334709D01*
X40354Y339567D02*
Y365158D01*
X57087Y381890D01*
X157480D01*
X198425Y103543D02*
Y111614D01*
Y103543D02*
X204142Y97827D01*
Y92583D02*
Y97827D01*
X226969Y124409D02*
X233858D01*
X238653Y119614D01*
X246063D01*
X226969Y121260D02*
X231102D01*
X240748Y111614D01*
X246063D01*
X35591Y273622D02*
X93701D01*
X151575Y331496D01*
X11811Y169291D02*
X25433Y182913D01*
X20157Y116614D02*
X30236D01*
X34843Y112008D01*
X11811Y108268D02*
X20157Y116614D01*
X11811Y108268D02*
X11811D01*
X11811D02*
Y169291D01*
Y101575D02*
X18898Y94488D01*
X11811Y101575D02*
Y108268D01*
X34843Y112008D02*
X49213Y126378D01*
X132255D02*
X132649Y125984D01*
X147638D01*
X118173Y112205D02*
Y121323D01*
X123228Y126378D01*
X132255D01*
X196142Y85354D02*
Y92583D01*
X203157Y91598D02*
X204142Y92583D01*
X203157Y79724D02*
Y91598D01*
X246063Y119614D02*
X257874D01*
X250014Y110852D02*
X252284Y108583D01*
X246825Y110852D02*
X250014D01*
X246063Y111614D02*
X246825Y110852D01*
X244094Y157480D02*
X252284D01*
X244094Y172251D02*
X250902Y179058D01*
X244094Y165480D02*
Y172251D01*
X220472Y192913D02*
X226378D01*
X218504Y190945D02*
X220472Y192913D01*
X210787Y191228D02*
Y198661D01*
X210504Y190945D02*
X210787Y191228D01*
X170472Y276772D02*
Y291339D01*
Y276772D02*
X182677Y264567D01*
Y250488D02*
Y264567D01*
X175992Y243803D02*
X182677Y250488D01*
X159157Y243803D02*
X175992D01*
X151575Y236221D02*
X159157Y243803D01*
X151575Y208661D02*
Y236221D01*
X24213Y103740D02*
Y106299D01*
X11811Y87402D02*
X18898Y94488D01*
X24213Y80709D02*
X24606Y80315D01*
X24213Y80709D02*
Y103740D01*
X34843Y106299D02*
Y112008D01*
D24*
X262283Y159291D02*
D03*
X314961Y370394D02*
D03*
X78740D02*
D03*
X151575Y208661D02*
D03*
X299213Y46614D02*
D03*
X366142Y222913D02*
D03*
X90551Y205669D02*
D03*
X35433Y182913D02*
D03*
X289370Y155669D02*
D03*
D25*
X262283Y169291D02*
D03*
X314961Y260394D02*
D03*
Y270394D02*
D03*
Y280394D02*
D03*
Y290394D02*
D03*
Y300394D02*
D03*
Y310394D02*
D03*
Y320394D02*
D03*
Y330394D02*
D03*
Y340394D02*
D03*
Y350394D02*
D03*
Y360394D02*
D03*
X78740Y350394D02*
D03*
Y340394D02*
D03*
Y330394D02*
D03*
Y320394D02*
D03*
Y310394D02*
D03*
Y300394D02*
D03*
Y290394D02*
D03*
Y360394D02*
D03*
X220472Y291339D02*
D03*
X210472D02*
D03*
X200472D02*
D03*
X190472D02*
D03*
X180472D02*
D03*
X170472D02*
D03*
X160472D02*
D03*
X118110Y92520D02*
D03*
Y82520D02*
D03*
X108110Y92520D02*
D03*
X151575Y198661D02*
D03*
X236968Y205669D02*
D03*
X299213Y56614D02*
D03*
Y66614D02*
D03*
Y76614D02*
D03*
Y86614D02*
D03*
Y96614D02*
D03*
Y106614D02*
D03*
Y116614D02*
D03*
X172598Y66929D02*
D03*
X182598D02*
D03*
X192598D02*
D03*
X202598D02*
D03*
X212598D02*
D03*
X222598D02*
D03*
X232598D02*
D03*
X366142Y212913D02*
D03*
Y202913D02*
D03*
Y192913D02*
D03*
Y182913D02*
D03*
Y172913D02*
D03*
X90551Y195669D02*
D03*
Y185669D02*
D03*
Y175669D02*
D03*
Y165669D02*
D03*
Y155669D02*
D03*
Y145669D02*
D03*
Y135669D02*
D03*
X25433Y222913D02*
D03*
X35433D02*
D03*
X25433Y212913D02*
D03*
X35433D02*
D03*
X25433Y202913D02*
D03*
X35433D02*
D03*
X25433Y192913D02*
D03*
X35433D02*
D03*
X25433Y182913D02*
D03*
X160787Y35433D02*
D03*
X170787Y25433D02*
D03*
Y35433D02*
D03*
X180787Y25433D02*
D03*
Y35433D02*
D03*
X190787Y25433D02*
D03*
Y35433D02*
D03*
X200787Y25433D02*
D03*
Y35433D02*
D03*
X210787Y25433D02*
D03*
Y35433D02*
D03*
X220787Y25433D02*
D03*
Y35433D02*
D03*
X230787Y25433D02*
D03*
Y35433D02*
D03*
X282283Y259842D02*
D03*
X272284D02*
D03*
X262283D02*
D03*
X252284D02*
D03*
X242284D02*
D03*
X232283D02*
D03*
X222284D02*
D03*
X163228D02*
D03*
X153228D02*
D03*
X143228D02*
D03*
X133228D02*
D03*
X123228D02*
D03*
X113228D02*
D03*
X103228D02*
D03*
X289370Y165669D02*
D03*
Y175669D02*
D03*
Y185669D02*
D03*
Y195669D02*
D03*
Y205669D02*
D03*
X14764Y339567D02*
D03*
Y321850D02*
D03*
X40354Y339567D02*
D03*
Y321850D02*
D03*
X25591Y23622D02*
D03*
D26*
X230472Y291339D02*
D03*
X108110Y82520D02*
D03*
X226969Y205669D02*
D03*
X162598Y66929D02*
D03*
X160787Y25433D02*
D03*
X292284Y259842D02*
D03*
X173228D02*
D03*
X35591Y23622D02*
D03*
D27*
X175433Y232283D02*
D03*
D28*
X194646D02*
D03*
X66929Y47244D02*
D03*
Y23622D02*
D03*
Y35433D02*
D03*
D29*
X36991Y94601D02*
D03*
X132649Y117984D02*
D03*
X35591Y273622D02*
D03*
X49213Y295276D02*
D03*
X176976Y208661D02*
D03*
X195276Y180709D02*
D03*
X336614Y379921D02*
D03*
X157480Y326772D02*
D03*
Y381890D02*
D03*
X49213Y126378D02*
D03*
X132255D02*
D03*
X196142Y85354D02*
D03*
X203157Y79724D02*
D03*
X257874Y119614D02*
D03*
X252284Y108583D02*
D03*
Y157480D02*
D03*
X250902Y179058D02*
D03*
X226378Y192913D02*
D03*
X210787Y198661D02*
D03*
M02*
