G04 Layer_Color=32768*
%FSLAX25Y25*%
%MOIN*%
G70*
G01*
G75*
%ADD54C,0.00394*%
%ADD55C,0.00197*%
D54*
X194882Y141732D02*
X198819D01*
X196850Y139764D02*
Y143701D01*
X346457Y348425D02*
X350394D01*
X348425Y346457D02*
Y350394D01*
X345079Y341634D02*
Y355217D01*
X351772Y341634D02*
Y355217D01*
X345079Y341634D02*
X351772D01*
X345079Y355217D02*
X351772D01*
X64961Y35433D02*
X68898D01*
X66929Y33465D02*
Y37402D01*
X60827Y14567D02*
X73032D01*
Y56299D01*
X60827D02*
X73032D01*
X60827Y14567D02*
Y56299D01*
X29528Y104331D02*
Y108268D01*
X27559Y106299D02*
X31496D01*
X21654Y110039D02*
X37402D01*
X21654Y102559D02*
X37402D01*
X21654D02*
Y110039D01*
X37402Y102559D02*
Y110039D01*
X24213Y92520D02*
Y96457D01*
X22244Y94488D02*
X26181D01*
X16339Y98228D02*
X32087D01*
X16339Y90748D02*
X32087D01*
X16339D02*
Y98228D01*
X32087Y90748D02*
Y98228D01*
X33465Y66929D02*
Y70866D01*
X31496Y68898D02*
X35433D01*
D55*
X162402Y107283D02*
Y176181D01*
X231299Y107283D02*
Y176181D01*
X162402D02*
X231299D01*
X162402Y107283D02*
X231299D01*
X19291Y86024D02*
X47638D01*
X19291Y51772D02*
X47638D01*
Y86024D01*
X19291Y51772D02*
Y86024D01*
M02*
