G04 Layer_Color=255*
%FSLAX25Y25*%
%MOIN*%
G70*
G01*
G75*
%ADD10O,0.06890X0.01378*%
%ADD11O,0.01378X0.06890*%
%ADD12R,0.06000X0.08000*%
%ADD13R,0.06000X0.04000*%
%ADD14R,0.04000X0.06000*%
%ADD15O,0.05906X0.02953*%
%ADD16O,0.02559X0.05906*%
%ADD17O,0.02953X0.05906*%
%ADD18R,0.04724X0.04331*%
%ADD19R,0.04331X0.06693*%
%ADD20R,0.03937X0.09449*%
%ADD21R,0.12598X0.09449*%
%ADD24R,0.05906X0.05906*%
%ADD25C,0.05906*%
%ADD26R,0.05906X0.05906*%
%ADD27P,0.05966X8X22.5*%
%ADD28C,0.05512*%
D10*
X166732Y165354D02*
D03*
Y162205D02*
D03*
Y159055D02*
D03*
Y155905D02*
D03*
Y152756D02*
D03*
Y149606D02*
D03*
Y146457D02*
D03*
Y143307D02*
D03*
Y140157D02*
D03*
Y137008D02*
D03*
Y133858D02*
D03*
Y130709D02*
D03*
Y127559D02*
D03*
Y124409D02*
D03*
Y121260D02*
D03*
Y118110D02*
D03*
X226969D02*
D03*
Y121260D02*
D03*
Y124409D02*
D03*
Y127559D02*
D03*
Y130709D02*
D03*
Y133858D02*
D03*
Y137008D02*
D03*
Y140157D02*
D03*
Y143307D02*
D03*
Y146457D02*
D03*
Y149606D02*
D03*
Y152756D02*
D03*
Y155905D02*
D03*
Y159055D02*
D03*
Y162205D02*
D03*
Y165354D02*
D03*
D11*
X173228Y111614D02*
D03*
X176378D02*
D03*
X179528D02*
D03*
X182677D02*
D03*
X185827D02*
D03*
X188976D02*
D03*
X192126D02*
D03*
X195276D02*
D03*
X198425D02*
D03*
X201575D02*
D03*
X204724D02*
D03*
X207874D02*
D03*
X211024D02*
D03*
X214173D02*
D03*
X217323D02*
D03*
X220472D02*
D03*
Y171850D02*
D03*
X217323D02*
D03*
X214173D02*
D03*
X211024D02*
D03*
X207874D02*
D03*
X204724D02*
D03*
X201575D02*
D03*
X198425D02*
D03*
X195276D02*
D03*
X192126D02*
D03*
X188976D02*
D03*
X185827D02*
D03*
X182677D02*
D03*
X179528D02*
D03*
X176378D02*
D03*
X173228D02*
D03*
D12*
X195972Y214866D02*
D03*
X184972D02*
D03*
X181102Y198819D02*
D03*
X170102D02*
D03*
X25996Y299213D02*
D03*
X36996D02*
D03*
D13*
X244094Y165480D02*
D03*
Y157480D02*
D03*
X246063Y119614D02*
D03*
Y111614D02*
D03*
X348425Y362142D02*
D03*
Y370142D02*
D03*
X147638Y117984D02*
D03*
Y125984D02*
D03*
X55118Y326709D02*
D03*
Y334709D02*
D03*
D14*
X118173Y112205D02*
D03*
X110173D02*
D03*
X204142Y92583D02*
D03*
X196142D02*
D03*
X210504Y190945D02*
D03*
X218504D02*
D03*
D15*
X169291Y378740D02*
D03*
Y374016D02*
D03*
Y369291D02*
D03*
Y364567D02*
D03*
Y359842D02*
D03*
Y355118D02*
D03*
Y350394D02*
D03*
Y345669D02*
D03*
Y340945D02*
D03*
Y336221D02*
D03*
Y331496D02*
D03*
Y326772D02*
D03*
X221654D02*
D03*
Y331496D02*
D03*
Y336221D02*
D03*
Y340945D02*
D03*
Y345669D02*
D03*
Y350394D02*
D03*
Y355118D02*
D03*
Y359842D02*
D03*
Y364567D02*
D03*
Y369291D02*
D03*
Y374016D02*
D03*
Y378740D02*
D03*
D16*
X207874Y315748D02*
D03*
X183465D02*
D03*
X211811D02*
D03*
X179528D02*
D03*
D17*
X202756D02*
D03*
X193307D02*
D03*
X198031D02*
D03*
X188583D02*
D03*
D18*
X348425Y344291D02*
D03*
Y352559D02*
D03*
D19*
X24213Y106299D02*
D03*
X34843D02*
D03*
X18898Y94488D02*
D03*
X29528D02*
D03*
D20*
X42323Y80315D02*
D03*
X36417D02*
D03*
X30512D02*
D03*
X24606D02*
D03*
D21*
X33465Y57480D02*
D03*
D24*
X262283Y159291D02*
D03*
X314961Y370394D02*
D03*
X78740D02*
D03*
X151575Y208661D02*
D03*
X299213Y46614D02*
D03*
X366142Y222913D02*
D03*
X90551Y205669D02*
D03*
X35433Y182913D02*
D03*
X289370Y155669D02*
D03*
D25*
X262283Y169291D02*
D03*
X314961Y260394D02*
D03*
Y270394D02*
D03*
Y280394D02*
D03*
Y290394D02*
D03*
Y300394D02*
D03*
Y310394D02*
D03*
Y320394D02*
D03*
Y330394D02*
D03*
Y340394D02*
D03*
Y350394D02*
D03*
Y360394D02*
D03*
X78740Y350394D02*
D03*
Y340394D02*
D03*
Y330394D02*
D03*
Y320394D02*
D03*
Y310394D02*
D03*
Y300394D02*
D03*
Y290394D02*
D03*
Y360394D02*
D03*
X220472Y291339D02*
D03*
X210472D02*
D03*
X200472D02*
D03*
X190472D02*
D03*
X180472D02*
D03*
X170472D02*
D03*
X160472D02*
D03*
X118110Y92520D02*
D03*
Y82520D02*
D03*
X108110Y92520D02*
D03*
X151575Y198661D02*
D03*
X236968Y205669D02*
D03*
X299213Y56614D02*
D03*
Y66614D02*
D03*
Y76614D02*
D03*
Y86614D02*
D03*
Y96614D02*
D03*
Y106614D02*
D03*
Y116614D02*
D03*
X172598Y66929D02*
D03*
X182598D02*
D03*
X192598D02*
D03*
X202598D02*
D03*
X212598D02*
D03*
X222598D02*
D03*
X232598D02*
D03*
X366142Y212913D02*
D03*
Y202913D02*
D03*
Y192913D02*
D03*
Y182913D02*
D03*
Y172913D02*
D03*
X90551Y195669D02*
D03*
Y185669D02*
D03*
Y175669D02*
D03*
Y165669D02*
D03*
Y155669D02*
D03*
Y145669D02*
D03*
Y135669D02*
D03*
X25433Y222913D02*
D03*
X35433D02*
D03*
X25433Y212913D02*
D03*
X35433D02*
D03*
X25433Y202913D02*
D03*
X35433D02*
D03*
X25433Y192913D02*
D03*
X35433D02*
D03*
X25433Y182913D02*
D03*
X160787Y35433D02*
D03*
X170787Y25433D02*
D03*
Y35433D02*
D03*
X180787Y25433D02*
D03*
Y35433D02*
D03*
X190787Y25433D02*
D03*
Y35433D02*
D03*
X200787Y25433D02*
D03*
Y35433D02*
D03*
X210787Y25433D02*
D03*
Y35433D02*
D03*
X220787Y25433D02*
D03*
Y35433D02*
D03*
X230787Y25433D02*
D03*
Y35433D02*
D03*
X282283Y259842D02*
D03*
X272284D02*
D03*
X262283D02*
D03*
X252284D02*
D03*
X242284D02*
D03*
X232283D02*
D03*
X222284D02*
D03*
X163228D02*
D03*
X153228D02*
D03*
X143228D02*
D03*
X133228D02*
D03*
X123228D02*
D03*
X113228D02*
D03*
X103228D02*
D03*
X289370Y165669D02*
D03*
Y175669D02*
D03*
Y185669D02*
D03*
Y195669D02*
D03*
Y205669D02*
D03*
X14764Y339567D02*
D03*
Y321850D02*
D03*
X40354Y339567D02*
D03*
Y321850D02*
D03*
X25591Y23622D02*
D03*
D26*
X230472Y291339D02*
D03*
X108110Y82520D02*
D03*
X226969Y205669D02*
D03*
X162598Y66929D02*
D03*
X160787Y25433D02*
D03*
X292284Y259842D02*
D03*
X173228D02*
D03*
X35591Y23622D02*
D03*
D27*
X175433Y232283D02*
D03*
D28*
X194646D02*
D03*
X66929Y47244D02*
D03*
Y23622D02*
D03*
Y35433D02*
D03*
M02*
