G04 Layer_Physical_Order=2*
G04 Layer_Color=16711680*
%FSLAX25Y25*%
%MOIN*%
G70*
G01*
G75*
%ADD22C,0.01000*%
%ADD23C,0.01575*%
%ADD24R,0.05906X0.05906*%
%ADD25C,0.05906*%
%ADD26R,0.05906X0.05906*%
%ADD27P,0.05966X8X22.5*%
%ADD28C,0.05512*%
%ADD29C,0.05000*%
D22*
X82835Y145669D02*
X90551D01*
X45591Y182913D02*
X82835Y145669D01*
X35433Y182913D02*
X45591D01*
X35433Y202913D02*
X53307D01*
X90551Y165669D01*
X49213Y224410D02*
X55118Y218504D01*
X49213Y224410D02*
Y295276D01*
X55118Y218504D02*
X91969D01*
X43965Y207350D02*
X55118Y218504D01*
X28216Y207350D02*
X43965D01*
X25433Y204567D02*
X28216Y207350D01*
X25433Y202913D02*
Y204567D01*
X91969Y218504D02*
X106982Y203490D01*
Y194199D02*
Y203490D01*
Y194199D02*
X115984Y185197D01*
X285591Y159449D02*
X289370Y155669D01*
X281496Y159449D02*
X285591D01*
X255906Y185039D02*
X281496Y159449D01*
X255906Y185039D02*
Y238189D01*
X246063Y248031D02*
X255906Y238189D01*
X218504Y248031D02*
X246063D01*
X212598Y253937D02*
X218504Y248031D01*
X212598Y253937D02*
Y265591D01*
X204583Y273606D02*
X212598Y265591D01*
X150753Y273606D02*
X204583D01*
X152397Y277575D02*
X250826D01*
X84646Y345326D02*
X152397Y277575D01*
X83965Y340394D02*
X150753Y273606D01*
X78740Y340394D02*
X83965D01*
X78740Y360394D02*
X84646Y354488D01*
Y345326D02*
Y354488D01*
X299213Y314646D02*
X314961Y330394D01*
X299213Y266772D02*
Y314646D01*
X292284Y259842D02*
X299213Y266772D01*
X295276Y330709D02*
X314961Y350394D01*
X295276Y272835D02*
Y330709D01*
X282283Y259842D02*
X295276Y272835D01*
X78740Y348425D02*
X151575Y275590D01*
X250826Y277575D02*
X268558Y259842D01*
X272284D01*
X246535Y275590D02*
X262283Y259842D01*
X151575Y275590D02*
X246535D01*
X78740Y348425D02*
Y350394D01*
X273606Y219326D02*
X292485Y238205D01*
X273606Y208627D02*
Y219326D01*
Y208627D02*
X279528Y202706D01*
Y185512D02*
Y202706D01*
Y185512D02*
X289370Y175669D01*
X310202Y238205D02*
X324787Y252790D01*
X292485Y238205D02*
X310202D01*
X324787Y252790D02*
Y260567D01*
X314961Y270394D02*
X324787Y260567D01*
X314961Y290394D02*
X322835Y282520D01*
Y275326D02*
Y282520D01*
Y275326D02*
X328756Y269405D01*
Y251147D02*
Y269405D01*
X311845Y234236D02*
X328756Y251147D01*
X294129Y234236D02*
X311845D01*
X277575Y217682D02*
X294129Y234236D01*
X277575Y210614D02*
Y217682D01*
Y210614D02*
X282520Y205669D01*
X314961Y280394D02*
X326772Y268583D01*
Y251969D02*
Y268583D01*
X311024Y236221D02*
X326772Y251969D01*
X293307Y236221D02*
X311024D01*
X275590Y218504D02*
X293307Y236221D01*
X275590Y209449D02*
Y218504D01*
Y209449D02*
X289370Y195669D01*
X282520Y205669D02*
X289370D01*
X177165Y208850D02*
Y230551D01*
X175433Y232283D02*
X177165Y230551D01*
X176976Y208661D02*
X177165Y208850D01*
X115984Y185197D02*
X190787D01*
X195276Y180709D01*
X200787Y35433D02*
X202496D01*
X200787Y49213D02*
X206693Y55118D01*
X200787Y35433D02*
Y49213D01*
X366142Y182913D02*
X375984Y173071D01*
X289370Y96457D02*
X299213Y86614D01*
X289370Y96457D02*
Y122047D01*
X295276Y127953D01*
X344488Y222913D02*
X366142D01*
X299213Y96614D02*
X313150D01*
X299213Y66614D02*
X300866D01*
X375984Y141732D01*
Y173071D01*
X344173Y172913D02*
X366142D01*
X313150Y96614D02*
X338583Y122047D01*
Y167323D01*
X344173Y172913D01*
X326772Y205197D02*
X344488Y222913D01*
X295276Y127953D02*
X321339D01*
X326772Y133386D01*
Y205197D01*
X220787Y55118D02*
X232598Y66929D01*
X206693Y55118D02*
X220787D01*
D23*
X126824Y122047D02*
X131768Y117103D01*
X36991Y96046D02*
X42107Y101162D01*
X36991Y94601D02*
Y96046D01*
X47131Y94601D02*
X98425Y43307D01*
X36991Y94601D02*
X47131D01*
X162913Y43307D02*
X170787Y35433D01*
X98425Y43307D02*
X162913D01*
X14764Y182244D02*
X25433Y192913D01*
X14764Y137579D02*
Y182244D01*
Y137579D02*
X42107Y110236D01*
Y111398D01*
Y101162D02*
Y110236D01*
X160787Y19685D02*
Y25433D01*
Y19685D02*
X164724Y15748D01*
X226969D01*
X230787Y19567D01*
Y25433D01*
X14764Y252953D02*
X35433Y273622D01*
X14764Y199803D02*
Y252953D01*
Y199803D02*
X21654Y192913D01*
X35433Y273622D02*
X35591D01*
X21654Y192913D02*
X25433D01*
X220472Y291339D02*
X228346Y299213D01*
X279528D01*
X289370Y309055D01*
Y360236D01*
X309055Y379921D01*
X336614D01*
X170472Y291339D02*
X178347Y283465D01*
X212598D01*
X220472Y291339D01*
X157480Y326772D02*
Y381890D01*
Y304331D02*
Y326772D01*
Y304331D02*
X170472Y291339D01*
X42107Y111398D02*
X52756Y122047D01*
X126824D01*
X49213Y126378D02*
X132255D01*
X154488Y85354D02*
X196142D01*
X139764Y100079D02*
X154488Y85354D01*
X139764Y100079D02*
Y118869D01*
X132255Y126378D02*
X139764Y118869D01*
X132649Y99685D02*
Y117984D01*
Y99685D02*
X153594Y78740D01*
X202173D01*
X203157Y79724D01*
X231299D01*
X196142Y85354D02*
X229055D01*
X231299Y79724D02*
X257874Y106299D01*
Y119614D01*
X229055Y85354D02*
X252284Y108583D01*
Y157480D01*
X257559Y119929D02*
X257874Y119614D01*
X257559Y119929D02*
Y172401D01*
X250902Y179058D02*
X257559Y172401D01*
X252284Y157480D02*
Y167008D01*
X226378Y192913D02*
X252284Y167008D01*
X231298Y198661D02*
X250902Y179058D01*
X210787Y198661D02*
X231298D01*
D24*
X262283Y159291D02*
D03*
X314961Y370394D02*
D03*
X78740D02*
D03*
X151575Y208661D02*
D03*
X299213Y46614D02*
D03*
X366142Y222913D02*
D03*
X90551Y205669D02*
D03*
X35433Y182913D02*
D03*
X289370Y155669D02*
D03*
D25*
X262283Y169291D02*
D03*
X314961Y260394D02*
D03*
Y270394D02*
D03*
Y280394D02*
D03*
Y290394D02*
D03*
Y300394D02*
D03*
Y310394D02*
D03*
Y320394D02*
D03*
Y330394D02*
D03*
Y340394D02*
D03*
Y350394D02*
D03*
Y360394D02*
D03*
X78740Y350394D02*
D03*
Y340394D02*
D03*
Y330394D02*
D03*
Y320394D02*
D03*
Y310394D02*
D03*
Y300394D02*
D03*
Y290394D02*
D03*
Y360394D02*
D03*
X220472Y291339D02*
D03*
X210472D02*
D03*
X200472D02*
D03*
X190472D02*
D03*
X180472D02*
D03*
X170472D02*
D03*
X160472D02*
D03*
X118110Y92520D02*
D03*
Y82520D02*
D03*
X108110Y92520D02*
D03*
X151575Y198661D02*
D03*
X236968Y205669D02*
D03*
X299213Y56614D02*
D03*
Y66614D02*
D03*
Y76614D02*
D03*
Y86614D02*
D03*
Y96614D02*
D03*
Y106614D02*
D03*
Y116614D02*
D03*
X172598Y66929D02*
D03*
X182598D02*
D03*
X192598D02*
D03*
X202598D02*
D03*
X212598D02*
D03*
X222598D02*
D03*
X232598D02*
D03*
X366142Y212913D02*
D03*
Y202913D02*
D03*
Y192913D02*
D03*
Y182913D02*
D03*
Y172913D02*
D03*
X90551Y195669D02*
D03*
Y185669D02*
D03*
Y175669D02*
D03*
Y165669D02*
D03*
Y155669D02*
D03*
Y145669D02*
D03*
Y135669D02*
D03*
X25433Y222913D02*
D03*
X35433D02*
D03*
X25433Y212913D02*
D03*
X35433D02*
D03*
X25433Y202913D02*
D03*
X35433D02*
D03*
X25433Y192913D02*
D03*
X35433D02*
D03*
X25433Y182913D02*
D03*
X160787Y35433D02*
D03*
X170787Y25433D02*
D03*
Y35433D02*
D03*
X180787Y25433D02*
D03*
Y35433D02*
D03*
X190787Y25433D02*
D03*
Y35433D02*
D03*
X200787Y25433D02*
D03*
Y35433D02*
D03*
X210787Y25433D02*
D03*
Y35433D02*
D03*
X220787Y25433D02*
D03*
Y35433D02*
D03*
X230787Y25433D02*
D03*
Y35433D02*
D03*
X282283Y259842D02*
D03*
X272284D02*
D03*
X262283D02*
D03*
X252284D02*
D03*
X242284D02*
D03*
X232283D02*
D03*
X222284D02*
D03*
X163228D02*
D03*
X153228D02*
D03*
X143228D02*
D03*
X133228D02*
D03*
X123228D02*
D03*
X113228D02*
D03*
X103228D02*
D03*
X289370Y165669D02*
D03*
Y175669D02*
D03*
Y185669D02*
D03*
Y195669D02*
D03*
Y205669D02*
D03*
X14764Y339567D02*
D03*
Y321850D02*
D03*
X40354Y339567D02*
D03*
Y321850D02*
D03*
X25591Y23622D02*
D03*
D26*
X230472Y291339D02*
D03*
X108110Y82520D02*
D03*
X226969Y205669D02*
D03*
X162598Y66929D02*
D03*
X160787Y25433D02*
D03*
X292284Y259842D02*
D03*
X173228D02*
D03*
X35591Y23622D02*
D03*
D27*
X175433Y232283D02*
D03*
D28*
X194646D02*
D03*
X66929Y47244D02*
D03*
Y23622D02*
D03*
Y35433D02*
D03*
D29*
X36991Y94601D02*
D03*
X132649Y117984D02*
D03*
X35591Y273622D02*
D03*
X49213Y295276D02*
D03*
X176976Y208661D02*
D03*
X195276Y180709D02*
D03*
X336614Y379921D02*
D03*
X157480Y326772D02*
D03*
Y381890D02*
D03*
X49213Y126378D02*
D03*
X132255D02*
D03*
X196142Y85354D02*
D03*
X203157Y79724D02*
D03*
X257874Y119614D02*
D03*
X252284Y108583D02*
D03*
Y157480D02*
D03*
X250902Y179058D02*
D03*
X226378Y192913D02*
D03*
X210787Y198661D02*
D03*
M02*
