M48
;Layer_Color=9474304
;FILE_FORMAT=2:5
INCH,TZ
;TYPE=PLATED
T1F00S00C0.02800
T2F00S00C0.03150
T3F00S00C0.03543
T4F00S00C0.03937
%
T01
X252284Y108583
X257874Y119614
X252284Y157480
X250902Y179058
X226378Y192913
X210787Y198661
X195276Y180709
X176976Y208661
X132255Y126378
X132649Y117984
X196142Y85354
X203157Y79724
X36991Y94601
X49213Y126378
X35591Y273622
X49213Y295276
X157480Y326772
X336614Y379921
X157480Y381890
T02
X175433Y232283
X194646
T03
X25591Y23622
X35591
X160787Y25433
Y35433
X170787
Y25433
X180787
Y35433
X190787
Y25433
X200787
Y35433
X210787
Y25433
X220787
Y35433
X230787
Y25433
X299213Y46614
Y56614
Y66614
Y76614
Y86614
Y96614
Y106614
Y116614
X289370Y155669
Y165669
Y175669
Y185669
Y195669
Y205669
X236968
X226969
X262283Y169291
Y159291
X366142Y172913
Y182913
Y192913
Y202913
X232598Y66929
X222598
X212598
X202598
X192598
X182598
X172598
X162598
X118110Y82520
Y92520
X108110
Y82520
X90551Y135669
Y145669
Y155669
Y165669
Y175669
Y185669
Y195669
Y205669
X151575Y208661
Y198661
X35433Y202913
X25433
Y192913
X35433
Y182913
X25433
Y212913
Y222913
X35433
Y212913
X103228Y259842
X113228
X123228
X133228
X143228
X153228
X163228
X173228
X170472Y291339
X180472
X190472
X200472
X210472
X160472
X78740Y290394
Y300394
Y310394
Y320394
Y330394
Y340394
Y350394
Y360394
X220472Y291339
X230472
X232283Y259842
X242284
X252284
X262283
X272284
X282283
X292284
X314961Y260394
Y270394
Y280394
Y290394
Y300394
Y310394
Y320394
Y330394
Y340394
Y350394
Y360394
X366142Y222913
Y212913
X222284Y259842
X314961Y370394
X78740
T04
X66929Y23622
Y35433
Y47244
X40354Y321850
Y339567
X14764
Y321850
M30
